<svg width="63" height="77" viewBox="0 0 63 77" fill="none" xmlns="http://www.w3.org/2000/svg">
<path d="M3.1665 10.1667V66.8334C3.1665 68.712 3.91278 70.5137 5.24116 71.842C6.56955 73.1704 8.37122 73.9167 10.2498 73.9167H52.7498C54.6284 73.9167 56.4301 73.1704 57.7585 71.842C59.0869 70.5137 59.8332 68.712 59.8332 66.8334V25.5446C59.833 24.601 59.6444 23.6669 59.2783 22.7972C58.9121 21.9274 58.3759 21.1396 57.7011 20.48L41.9761 5.10212C40.6528 3.8082 38.8756 3.0836 37.0248 3.08337H10.2498C8.37122 3.08337 6.56955 3.82965 5.24116 5.15803C3.91278 6.48642 3.1665 8.28809 3.1665 10.1667V10.1667Z" stroke="black" stroke-width="5" stroke-linecap="round" stroke-linejoin="round"/>
<path d="M20.875 42.0417H42.125" stroke="black" stroke-width="5" stroke-linecap="round" stroke-linejoin="round"/>
<path d="M20.875 56.2084H31.5" stroke="black" stroke-width="5" stroke-linecap="round" stroke-linejoin="round"/>
<path d="M38.583 3.08337V17.25C38.583 19.1287 39.3293 20.9303 40.6577 22.2587C41.9861 23.5871 43.7877 24.3334 45.6663 24.3334H59.833" stroke="black" stroke-width="5" stroke-linejoin="round"/>
</svg>
